<svg xmlns="http://www.w3.org/2000/svg" xmlns:xlink="http://www.w3.org/1999/xlink" version="1.1" width="256" height="256" viewBox="0 0 256 256" xml:space="preserve">

<defs>
</defs>
<g style="stroke: none; stroke-width: 0; stroke-dasharray: none; stroke-linecap: butt; stroke-linejoin: miter; stroke-miterlimit: 10; fill: none; fill-rule: nonzero; opacity: 1;" transform="translate(1.4065934065934016 1.4065934065934016) scale(2.81 2.81)" >
	<rect x="13.45" y="1" rx="0" ry="0" width="63.1" height="88" style="stroke: none; stroke-width: 1; stroke-dasharray: none; stroke-linecap: butt; stroke-linejoin: miter; stroke-miterlimit: 10; fill: rgb(138,168,189); fill-rule: nonzero; opacity: 1;" transform=" matrix(1 0 0 1 0 0) "/>
	<rect x="21.02" y="8.57" rx="0" ry="0" width="47.96" height="20.96" style="stroke: none; stroke-width: 1; stroke-dasharray: none; stroke-linecap: butt; stroke-linejoin: miter; stroke-miterlimit: 10; fill: rgb(213,234,121); fill-rule: nonzero; opacity: 1;" transform=" matrix(1 0 0 1 0 0) "/>
	<rect x="21.02" y="38.28" rx="0" ry="0" width="20.09" height="17.33" style="stroke: none; stroke-width: 1; stroke-dasharray: none; stroke-linecap: butt; stroke-linejoin: miter; stroke-miterlimit: 10; fill: rgb(197,211,222); fill-rule: nonzero; opacity: 1;" transform=" matrix(1 0 0 1 0 0) "/>
	<rect x="48.88" y="38.28" rx="0" ry="0" width="20.09" height="17.33" style="stroke: none; stroke-width: 1; stroke-dasharray: none; stroke-linecap: butt; stroke-linejoin: miter; stroke-miterlimit: 10; fill: rgb(197,211,222); fill-rule: nonzero; opacity: 1;" transform=" matrix(1 0 0 1 0 0) "/>
	<rect x="21.02" y="64.1" rx="0" ry="0" width="20.09" height="17.33" style="stroke: none; stroke-width: 1; stroke-dasharray: none; stroke-linecap: butt; stroke-linejoin: miter; stroke-miterlimit: 10; fill: rgb(197,211,222); fill-rule: nonzero; opacity: 1;" transform=" matrix(1 0 0 1 0 0) "/>
	<rect x="48.88" y="64.1" rx="0" ry="0" width="20.09" height="17.33" style="stroke: none; stroke-width: 1; stroke-dasharray: none; stroke-linecap: butt; stroke-linejoin: miter; stroke-miterlimit: 10; fill: rgb(255,125,151); fill-rule: nonzero; opacity: 1;" transform=" matrix(1 0 0 1 0 0) "/>
	<path d="M 76.549 90 H 13.451 c -0.552 0 -1 -0.447 -1 -1 V 1 c 0 -0.552 0.448 -1 1 -1 h 63.098 c 0.553 0 1 0.448 1 1 v 88 C 77.549 89.553 77.102 90 76.549 90 z M 14.451 88 h 61.098 V 2 H 14.451 V 88 z" style="stroke: none; stroke-width: 1; stroke-dasharray: none; stroke-linecap: butt; stroke-linejoin: miter; stroke-miterlimit: 10; fill: rgb(0,0,0); fill-rule: nonzero; opacity: 1;" transform=" matrix(1 0 0 1 0 0) " stroke-linecap="round" />
	<path d="M 68.98 30.531 H 21.02 c -0.552 0 -1 -0.448 -1 -1 V 8.568 c 0 -0.552 0.448 -1 1 -1 H 68.98 c 0.553 0 1 0.448 1 1 v 20.962 C 69.98 30.083 69.533 30.531 68.98 30.531 z M 22.02 28.531 H 67.98 V 9.568 H 22.02 V 28.531 z" style="stroke: none; stroke-width: 1; stroke-dasharray: none; stroke-linecap: butt; stroke-linejoin: miter; stroke-miterlimit: 10; fill: rgb(0,0,0); fill-rule: nonzero; opacity: 1;" transform=" matrix(1 0 0 1 0 0) " stroke-linecap="round" />
	<path d="M 41.115 56.606 H 21.02 c -0.552 0 -1 -0.447 -1 -1 V 38.279 c 0 -0.552 0.448 -1 1 -1 h 20.095 c 0.552 0 1 0.448 1 1 v 17.328 C 42.115 56.159 41.667 56.606 41.115 56.606 z M 22.02 54.606 h 18.095 V 39.279 H 22.02 V 54.606 z" style="stroke: none; stroke-width: 1; stroke-dasharray: none; stroke-linecap: butt; stroke-linejoin: miter; stroke-miterlimit: 10; fill: rgb(0,0,0); fill-rule: nonzero; opacity: 1;" transform=" matrix(1 0 0 1 0 0) " stroke-linecap="round" />
	<path d="M 68.98 56.606 H 48.886 c -0.553 0 -1 -0.447 -1 -1 V 38.279 c 0 -0.552 0.447 -1 1 -1 H 68.98 c 0.553 0 1 0.448 1 1 v 17.328 C 69.98 56.159 69.533 56.606 68.98 56.606 z M 49.886 54.606 H 67.98 V 39.279 H 49.886 V 54.606 z" style="stroke: none; stroke-width: 1; stroke-dasharray: none; stroke-linecap: butt; stroke-linejoin: miter; stroke-miterlimit: 10; fill: rgb(0,0,0); fill-rule: nonzero; opacity: 1;" transform=" matrix(1 0 0 1 0 0) " stroke-linecap="round" />
	<path d="M 41.115 82.432 H 21.02 c -0.552 0 -1 -0.447 -1 -1 V 64.104 c 0 -0.553 0.448 -1 1 -1 h 20.095 c 0.552 0 1 0.447 1 1 v 17.328 C 42.115 81.984 41.667 82.432 41.115 82.432 z M 22.02 80.432 h 18.095 V 65.104 H 22.02 V 80.432 z" style="stroke: none; stroke-width: 1; stroke-dasharray: none; stroke-linecap: butt; stroke-linejoin: miter; stroke-miterlimit: 10; fill: rgb(0,0,0); fill-rule: nonzero; opacity: 1;" transform=" matrix(1 0 0 1 0 0) " stroke-linecap="round" />
	<path d="M 68.98 82.432 H 48.886 c -0.553 0 -1 -0.447 -1 -1 V 64.104 c 0 -0.553 0.447 -1 1 -1 H 68.98 c 0.553 0 1 0.447 1 1 v 17.328 C 69.98 81.984 69.533 82.432 68.98 82.432 z M 49.886 80.432 H 67.98 V 65.104 H 49.886 V 80.432 z" style="stroke: none; stroke-width: 1; stroke-dasharray: none; stroke-linecap: butt; stroke-linejoin: miter; stroke-miterlimit: 10; fill: rgb(0,0,0); fill-rule: nonzero; opacity: 1;" transform=" matrix(1 0 0 1 0 0) " stroke-linecap="round" />
	<path d="M 31.067 51.995 c -0.552 0 -1 -0.447 -1 -1 V 42.89 c 0 -0.552 0.448 -1 1 -1 s 1 0.448 1 1 v 8.105 C 32.067 51.548 31.619 51.995 31.067 51.995 z" style="stroke: none; stroke-width: 1; stroke-dasharray: none; stroke-linecap: butt; stroke-linejoin: miter; stroke-miterlimit: 10; fill: rgb(0,0,0); fill-rule: nonzero; opacity: 1;" transform=" matrix(1 0 0 1 0 0) " stroke-linecap="round" />
	<path d="M 35.12 47.942 h -8.105 c -0.552 0 -1 -0.447 -1 -1 s 0.448 -1 1 -1 h 8.105 c 0.552 0 1 0.447 1 1 S 35.672 47.942 35.12 47.942 z" style="stroke: none; stroke-width: 1; stroke-dasharray: none; stroke-linecap: butt; stroke-linejoin: miter; stroke-miterlimit: 10; fill: rgb(0,0,0); fill-rule: nonzero; opacity: 1;" transform=" matrix(1 0 0 1 0 0) " stroke-linecap="round" />
	<path d="M 56.067 50.809 c -0.256 0 -0.512 -0.098 -0.707 -0.293 c -0.391 -0.391 -0.391 -1.023 0 -1.414 l 5.731 -5.731 c 0.391 -0.391 1.023 -0.391 1.414 0 s 0.391 1.023 0 1.414 l -5.731 5.731 C 56.579 50.711 56.323 50.809 56.067 50.809 z" style="stroke: none; stroke-width: 1; stroke-dasharray: none; stroke-linecap: butt; stroke-linejoin: miter; stroke-miterlimit: 10; fill: rgb(0,0,0); fill-rule: nonzero; opacity: 1;" transform=" matrix(1 0 0 1 0 0) " stroke-linecap="round" />
	<path d="M 61.799 50.809 c -0.256 0 -0.512 -0.098 -0.707 -0.293 l -5.731 -5.731 c -0.391 -0.391 -0.391 -1.023 0 -1.414 s 1.023 -0.391 1.414 0 l 5.731 5.731 c 0.391 0.391 0.391 1.023 0 1.414 C 62.311 50.711 62.055 50.809 61.799 50.809 z" style="stroke: none; stroke-width: 1; stroke-dasharray: none; stroke-linecap: butt; stroke-linejoin: miter; stroke-miterlimit: 10; fill: rgb(0,0,0); fill-rule: nonzero; opacity: 1;" transform=" matrix(1 0 0 1 0 0) " stroke-linecap="round" />
	<path d="M 35.12 73.768 h -8.105 c -0.552 0 -1 -0.447 -1 -1 s 0.448 -1 1 -1 h 8.105 c 0.552 0 1 0.447 1 1 S 35.672 73.768 35.12 73.768 z" style="stroke: none; stroke-width: 1; stroke-dasharray: none; stroke-linecap: butt; stroke-linejoin: miter; stroke-miterlimit: 10; fill: rgb(0,0,0); fill-rule: nonzero; opacity: 1;" transform=" matrix(1 0 0 1 0 0) " stroke-linecap="round" />
	<path d="M 56.067 76.634 c -0.256 0 -0.512 -0.098 -0.707 -0.293 c -0.391 -0.391 -0.391 -1.023 0 -1.414 l 5.731 -5.731 c 0.391 -0.391 1.023 -0.391 1.414 0 s 0.391 1.023 0 1.414 l -5.731 5.731 C 56.579 76.536 56.323 76.634 56.067 76.634 z" style="stroke: none; stroke-width: 1; stroke-dasharray: none; stroke-linecap: butt; stroke-linejoin: miter; stroke-miterlimit: 10; fill: rgb(0,0,0); fill-rule: nonzero; opacity: 1;" transform=" matrix(1 0 0 1 0 0) " stroke-linecap="round" />
	<circle cx="58.931999999999995" cy="72.77199999999999" r="0.922" style="stroke: none; stroke-width: 1; stroke-dasharray: none; stroke-linecap: butt; stroke-linejoin: miter; stroke-miterlimit: 10; fill: rgb(0,0,0); fill-rule: nonzero; opacity: 1;" transform="  matrix(1 0 0 1 0 0) "/>
	<circle cx="56.162" cy="70.002" r="0.922" style="stroke: none; stroke-width: 1; stroke-dasharray: none; stroke-linecap: butt; stroke-linejoin: miter; stroke-miterlimit: 10; fill: rgb(0,0,0); fill-rule: nonzero; opacity: 1;" transform="  matrix(1 0 0 1 0 0) "/>
	<circle cx="61.702" cy="75.532" r="0.922" style="stroke: none; stroke-width: 1; stroke-dasharray: none; stroke-linecap: butt; stroke-linejoin: miter; stroke-miterlimit: 10; fill: rgb(0,0,0); fill-rule: nonzero; opacity: 1;" transform="  matrix(1 0 0 1 0 0) "/>
	<path d="M 59.757 25.781 c -2.868 0 -5.201 -2.333 -5.201 -5.202 v -3.061 c 0 -2.868 2.333 -5.202 5.201 -5.202 s 5.202 2.333 5.202 5.202 v 3.061 C 64.959 23.448 62.625 25.781 59.757 25.781 z M 59.757 14.317 c -1.765 0 -3.201 1.436 -3.201 3.202 v 3.061 c 0 1.766 1.437 3.202 3.201 3.202 c 1.766 0 3.202 -1.436 3.202 -3.202 v -3.061 C 62.959 15.753 61.522 14.317 59.757 14.317 z" style="stroke: none; stroke-width: 1; stroke-dasharray: none; stroke-linecap: butt; stroke-linejoin: miter; stroke-miterlimit: 10; fill: rgb(0,0,0); fill-rule: nonzero; opacity: 1;" transform=" matrix(1 0 0 1 0 0) " stroke-linecap="round" />
</g>
</svg>