<svg width="197.92" height="23.904" viewBox="0 0 197.92 23.904" xmlns="http://www.w3.org/2000/svg"><g id="svgGroup" stroke-linecap="round" fill-rule="nonzero" font-size="9pt" stroke="#1b75db" stroke-width="0.25mm" fill="#1b75db" style="stroke:#1b75db;stroke-width:0.25mm;fill:#1b75db"><path d="M 197.92 23.744 L 184.224 23.744 L 184.224 22.24 L 195.424 8.064 L 195.904 8.832 L 184.416 8.832 L 184.416 6.944 L 197.696 6.944 L 197.696 8.416 L 186.528 22.624 L 185.952 21.856 L 197.92 21.856 L 197.92 23.744 Z M 65.056 16.704 L 65.056 6.944 L 67.328 6.944 L 67.328 16.448 Q 67.328 18.265 67.935 19.475 A 4.043 4.043 0 0 0 68.656 20.496 A 4.337 4.337 0 0 0 70.735 21.665 Q 71.432 21.843 72.258 21.855 A 8.322 8.322 0 0 0 72.384 21.856 A 7.243 7.243 0 0 0 73.92 21.701 A 5.516 5.516 0 0 0 75.44 21.136 Q 76.736 20.416 77.424 19.04 A 6.282 6.282 0 0 0 77.971 17.372 Q 78.112 16.614 78.112 15.744 L 78.112 6.944 L 80.384 6.944 L 80.384 23.744 L 78.208 23.744 L 78.208 19.136 L 78.56 19.968 Q 77.76 21.824 76.08 22.864 Q 74.4 23.904 72.16 23.904 A 9.702 9.702 0 0 1 70.27 23.728 A 7.303 7.303 0 0 1 68.416 23.104 Q 66.816 22.304 65.936 20.704 A 6.692 6.692 0 0 1 65.28 18.92 Q 65.105 18.134 65.067 17.223 A 12.391 12.391 0 0 1 65.056 16.704 Z M 166.752 23.744 L 164.416 23.744 L 156.96 6.944 L 159.328 6.944 L 166.176 22.528 L 165.056 22.528 L 172 6.944 L 174.24 6.944 L 166.752 23.744 Z M 15.264 10.112 L 13.568 11.264 A 5.666 5.666 0 0 0 12.396 9.981 A 5.036 5.036 0 0 0 11.424 9.376 A 6.371 6.371 0 0 0 8.781 8.769 A 7.364 7.364 0 0 0 8.64 8.768 A 6.773 6.773 0 0 0 6.538 9.087 A 6.109 6.109 0 0 0 5.408 9.584 Q 3.968 10.4 3.136 11.872 A 6.351 6.351 0 0 0 2.403 14.025 A 8.338 8.338 0 0 0 2.304 15.328 A 7.995 7.995 0 0 0 2.487 17.076 A 6.2 6.2 0 0 0 3.136 18.784 Q 3.968 20.256 5.408 21.072 Q 6.848 21.888 8.64 21.888 Q 10.144 21.888 11.424 21.28 A 5.355 5.355 0 0 0 13.431 19.615 A 6.383 6.383 0 0 0 13.568 19.424 L 15.264 20.576 Q 14.272 22.208 12.544 23.056 A 8.339 8.339 0 0 1 9.622 23.861 A 10.179 10.179 0 0 1 8.672 23.904 A 9.678 9.678 0 0 1 6.031 23.555 A 8.351 8.351 0 0 1 4.208 22.8 Q 2.24 21.696 1.12 19.76 A 8.353 8.353 0 0 1 0.054 16.393 A 10.371 10.371 0 0 1 0 15.328 Q 0 12.8 1.12 10.88 Q 2.24 8.96 4.208 7.872 A 8.759 8.759 0 0 1 7.68 6.829 A 10.767 10.767 0 0 1 8.672 6.784 A 9.522 9.522 0 0 1 11.012 7.062 A 8.091 8.091 0 0 1 12.544 7.616 Q 14.272 8.448 15.264 10.112 Z M 60.768 10.112 L 59.072 11.264 A 5.666 5.666 0 0 0 57.9 9.981 A 5.036 5.036 0 0 0 56.928 9.376 A 6.371 6.371 0 0 0 54.285 8.769 A 7.364 7.364 0 0 0 54.144 8.768 A 6.773 6.773 0 0 0 52.042 9.087 A 6.109 6.109 0 0 0 50.912 9.584 Q 49.472 10.4 48.64 11.872 A 6.351 6.351 0 0 0 47.907 14.025 A 8.338 8.338 0 0 0 47.808 15.328 A 7.995 7.995 0 0 0 47.991 17.076 A 6.2 6.2 0 0 0 48.64 18.784 Q 49.472 20.256 50.912 21.072 Q 52.352 21.888 54.144 21.888 Q 55.648 21.888 56.928 21.28 A 5.355 5.355 0 0 0 58.935 19.615 A 6.383 6.383 0 0 0 59.072 19.424 L 60.768 20.576 Q 59.776 22.208 58.048 23.056 A 8.339 8.339 0 0 1 55.126 23.861 A 10.179 10.179 0 0 1 54.176 23.904 A 9.678 9.678 0 0 1 51.535 23.555 A 8.351 8.351 0 0 1 49.712 22.8 Q 47.744 21.696 46.624 19.76 A 8.353 8.353 0 0 1 45.558 16.393 A 10.371 10.371 0 0 1 45.504 15.328 Q 45.504 12.8 46.624 10.88 Q 47.744 8.96 49.712 7.872 A 8.759 8.759 0 0 1 53.184 6.829 A 10.767 10.767 0 0 1 54.176 6.784 A 9.522 9.522 0 0 1 56.516 7.062 A 8.091 8.091 0 0 1 58.048 7.616 Q 59.776 8.448 60.768 10.112 Z M 24.8 14.24 L 30.592 14.24 L 30.592 15.936 L 24.864 15.936 Q 22.918 15.936 21.925 16.489 A 2.303 2.303 0 0 0 21.488 16.8 A 2.778 2.778 0 0 0 20.547 18.815 A 3.388 3.388 0 0 0 20.544 18.944 A 2.979 2.979 0 0 0 20.766 20.112 Q 21.043 20.769 21.664 21.248 A 3.778 3.778 0 0 0 22.887 21.861 Q 23.404 22.018 24.022 22.077 A 8.222 8.222 0 0 0 24.8 22.112 A 7.022 7.022 0 0 0 26.478 21.92 A 5.48 5.48 0 0 0 28.112 21.232 A 4.976 4.976 0 0 0 30.012 19.006 A 6.231 6.231 0 0 0 30.144 18.688 L 30.656 20.256 Q 30.016 21.92 28.432 22.912 Q 26.964 23.831 24.795 23.899 A 11.188 11.188 0 0 1 24.448 23.904 A 9.659 9.659 0 0 1 22.891 23.785 Q 21.951 23.631 21.168 23.28 A 5.54 5.54 0 0 1 19.974 22.563 A 4.435 4.435 0 0 1 19.04 21.552 A 4.401 4.401 0 0 1 18.314 19.33 A 5.422 5.422 0 0 1 18.304 19.008 A 4.751 4.751 0 0 1 18.654 17.177 A 4.549 4.549 0 0 1 18.928 16.624 A 3.776 3.776 0 0 1 19.9 15.537 Q 20.364 15.178 20.976 14.896 Q 22.4 14.24 24.8 14.24 Z M 100.416 14.24 L 106.208 14.24 L 106.208 15.936 L 100.48 15.936 Q 98.534 15.936 97.541 16.489 A 2.303 2.303 0 0 0 97.104 16.8 A 2.778 2.778 0 0 0 96.163 18.815 A 3.388 3.388 0 0 0 96.16 18.944 A 2.979 2.979 0 0 0 96.382 20.112 Q 96.659 20.769 97.28 21.248 A 3.778 3.778 0 0 0 98.503 21.861 Q 99.02 22.018 99.638 22.077 A 8.222 8.222 0 0 0 100.416 22.112 A 7.022 7.022 0 0 0 102.094 21.92 A 5.48 5.48 0 0 0 103.728 21.232 A 4.976 4.976 0 0 0 105.628 19.006 A 6.231 6.231 0 0 0 105.76 18.688 L 106.272 20.256 Q 105.632 21.92 104.048 22.912 Q 102.58 23.831 100.411 23.899 A 11.188 11.188 0 0 1 100.064 23.904 A 9.659 9.659 0 0 1 98.507 23.785 Q 97.567 23.631 96.784 23.28 A 5.54 5.54 0 0 1 95.59 22.563 A 4.435 4.435 0 0 1 94.656 21.552 A 4.401 4.401 0 0 1 93.93 19.33 A 5.422 5.422 0 0 1 93.92 19.008 A 4.751 4.751 0 0 1 94.27 17.177 A 4.549 4.549 0 0 1 94.544 16.624 A 3.776 3.776 0 0 1 95.516 15.537 Q 95.98 15.178 96.592 14.896 Q 98.016 14.24 100.416 14.24 Z M 32.416 23.744 L 30.24 23.744 L 30.24 20.032 L 30.144 19.424 L 30.144 13.216 Q 30.144 11.522 29.395 10.448 A 3.518 3.518 0 0 0 28.944 9.92 A 3.779 3.779 0 0 0 27.508 9.074 Q 26.597 8.768 25.376 8.768 Q 23.744 8.768 22.272 9.312 A 8.763 8.763 0 0 0 20.796 10.012 A 7.068 7.068 0 0 0 19.776 10.752 L 18.752 9.056 Q 20.032 7.968 21.824 7.376 Q 23.616 6.784 25.6 6.784 A 10.573 10.573 0 0 1 27.582 6.958 Q 28.704 7.172 29.583 7.651 A 5.399 5.399 0 0 1 30.64 8.4 Q 32.416 10.016 32.416 13.312 L 32.416 23.744 Z M 108.032 23.744 L 105.856 23.744 L 105.856 20.032 L 105.76 19.424 L 105.76 13.216 Q 105.76 11.522 105.011 10.448 A 3.518 3.518 0 0 0 104.56 9.92 A 3.779 3.779 0 0 0 103.124 9.074 Q 102.213 8.768 100.992 8.768 Q 99.36 8.768 97.888 9.312 A 8.763 8.763 0 0 0 96.412 10.012 A 7.068 7.068 0 0 0 95.392 10.752 L 94.368 9.056 Q 95.648 7.968 97.44 7.376 Q 99.232 6.784 101.216 6.784 A 10.573 10.573 0 0 1 103.198 6.958 Q 104.32 7.172 105.199 7.651 A 5.399 5.399 0 0 1 106.256 8.4 Q 108.032 10.016 108.032 13.312 L 108.032 23.744 Z M 149.536 23.744 L 147.264 23.744 L 147.264 6.944 L 149.44 6.944 L 149.44 11.52 L 149.216 10.72 A 5.777 5.777 0 0 1 150.391 8.762 A 5.482 5.482 0 0 1 151.584 7.792 A 6.681 6.681 0 0 1 153.643 6.991 Q 154.596 6.784 155.712 6.784 L 155.712 8.992 Q 155.584 8.992 155.456 8.976 Q 155.328 8.96 155.2 8.96 A 7.013 7.013 0 0 0 153.444 9.168 A 4.872 4.872 0 0 0 151.04 10.576 Q 149.536 12.192 149.536 15.168 L 149.536 23.744 Z M 114.592 19.008 L 114.592 3.232 L 116.864 3.232 L 116.864 18.88 Q 116.864 20.352 117.616 21.152 A 2.426 2.426 0 0 0 118.776 21.83 Q 119.226 21.952 119.776 21.952 Q 121.28 21.952 122.272 21.088 L 123.072 22.72 A 4.103 4.103 0 0 1 121.745 23.518 A 4.865 4.865 0 0 1 121.456 23.616 Q 120.512 23.904 119.52 23.904 A 7.031 7.031 0 0 1 118.083 23.766 Q 117.197 23.581 116.521 23.147 A 3.891 3.891 0 0 1 115.872 22.624 A 4.17 4.17 0 0 1 114.803 20.732 Q 114.625 20.078 114.597 19.3 A 8.168 8.168 0 0 1 114.592 19.008 Z M 121.984 8.832 L 121.984 6.944 L 111.584 6.944 L 111.584 8.832 L 121.984 8.832 Z M 131.335 23.515 A 8.16 8.16 0 0 1 129.68 22.8 Q 127.744 21.696 126.624 19.76 A 8.353 8.353 0 0 1 125.558 16.393 A 10.371 10.371 0 0 1 125.504 15.328 Q 125.504 12.8 126.624 10.88 Q 127.744 8.96 129.664 7.872 A 8.398 8.398 0 0 1 132.996 6.836 A 10.415 10.415 0 0 1 134.048 6.784 A 9.777 9.777 0 0 1 136.542 7.091 A 8.187 8.187 0 0 1 138.48 7.872 Q 140.416 8.96 141.52 10.88 A 8.266 8.266 0 0 1 142.537 13.954 A 10.514 10.514 0 0 1 142.624 15.328 A 9.643 9.643 0 0 1 142.313 17.822 A 8.119 8.119 0 0 1 141.52 19.76 Q 140.416 21.696 138.464 22.8 A 8.572 8.572 0 0 1 134.88 23.871 A 10.447 10.447 0 0 1 134.048 23.904 A 9.207 9.207 0 0 1 131.335 23.515 Z M 134.048 21.888 A 6.95 6.95 0 0 0 135.869 21.658 A 5.844 5.844 0 0 0 137.28 21.072 Q 138.688 20.256 139.504 18.768 A 6.58 6.58 0 0 0 140.241 16.503 A 8.402 8.402 0 0 0 140.32 15.328 A 8.146 8.146 0 0 0 140.141 13.581 A 6.275 6.275 0 0 0 139.504 11.872 Q 138.688 10.4 137.28 9.584 A 6.089 6.089 0 0 0 134.685 8.792 A 7.464 7.464 0 0 0 134.08 8.768 A 6.745 6.745 0 0 0 132.186 9.026 A 5.863 5.863 0 0 0 130.88 9.584 Q 129.472 10.4 128.64 11.872 A 6.351 6.351 0 0 0 127.907 14.025 A 8.338 8.338 0 0 0 127.808 15.328 Q 127.808 17.28 128.64 18.768 Q 129.472 20.256 130.88 21.072 Q 132.288 21.888 134.048 21.888 Z M 40.864 23.744 L 38.592 23.744 L 38.592 0 L 40.864 0 L 40.864 23.744 Z M 88.992 23.744 L 86.72 23.744 L 86.72 0 L 88.992 0 L 88.992 23.744 Z M 179.712 23.744 L 177.44 23.744 L 177.44 6.944 L 179.712 6.944 L 179.712 23.744 Z M 177.926 3.104 A 1.613 1.613 0 0 1 177.408 2.752 A 1.57 1.57 0 0 1 176.928 1.621 A 1.869 1.869 0 0 1 176.928 1.6 A 1.516 1.516 0 0 1 177.379 0.493 A 1.819 1.819 0 0 1 177.408 0.464 A 1.633 1.633 0 0 1 178.568 0 A 2.115 2.115 0 0 1 178.592 0 A 1.825 1.825 0 0 1 179.222 0.105 A 1.619 1.619 0 0 1 179.776 0.448 A 1.461 1.461 0 0 1 180.255 1.506 A 1.839 1.839 0 0 1 180.256 1.568 Q 180.256 2.272 179.792 2.752 Q 179.328 3.232 178.592 3.232 A 1.702 1.702 0 0 1 177.926 3.104 Z"/></g></svg>